<svg width="32" height="33" viewBox="0 0 32 33" fill="none" xmlns="http://www.w3.org/2000/svg">
<g clip-path="url(#clip0_14_523)">
<path d="M26.4622 12.4911C25.5547 12.4693 24.6613 12.2616 23.8373 11.8809C23.0132 11.5002 22.276 10.9546 21.6711 10.2778C21.9958 11.6592 21.8072 13.1115 21.1404 14.3642C20.4737 15.6168 19.3743 16.5843 18.0471 17.0865C16.7199 17.5887 15.2553 17.5912 13.9264 17.0936C12.5975 16.596 11.4947 15.6322 10.8237 14.3818C10.1527 13.1315 9.95912 11.6798 10.2791 10.2973C10.599 8.91481 11.4107 7.69577 12.5628 6.86734C13.7149 6.03891 15.1289 5.65759 16.5414 5.79443C17.9538 5.93126 19.2683 6.57692 20.24 7.61111C19.8473 6.18665 19.9444 4.67161 20.5155 3.30889C18.924 2.54026 17.1635 2.18807 15.3988 2.28528C13.6341 2.3825 11.9229 2.92594 10.4255 3.86472C8.92806 4.80351 7.69334 6.10693 6.83693 7.65296C5.98053 9.19899 5.53046 10.9371 5.52886 12.7044C5.52886 16.8556 7.85775 20.3311 9.56441 22.8644L9.87552 23.3267C11.5736 25.7877 13.3951 28.1611 15.3333 30.4378L16.0089 31.2289L16.6844 30.4378C18.6223 28.1609 20.4439 25.7875 22.1422 23.3267L22.4533 22.8556C24.1511 20.3222 26.48 16.8556 26.48 12.7044C26.4711 12.6333 26.4622 12.5622 26.4622 12.4911Z" fill="#FF6904"/>
<path d="M16 14.8734C17.8311 14.8734 19.3155 13.3889 19.3155 11.5578C19.3155 9.72667 17.8311 8.24225 16 8.24225C14.1688 8.24225 12.6844 9.72667 12.6844 11.5578C12.6844 13.3889 14.1688 14.8734 16 14.8734Z" fill="#FF6904"/>
<path d="M26.6666 10.2778C29.1212 10.2778 31.1111 8.28796 31.1111 5.83336C31.1111 3.37876 29.1212 1.38892 26.6666 1.38892C24.212 1.38892 22.2222 3.37876 22.2222 5.83336C22.2222 8.28796 24.212 10.2778 26.6666 10.2778Z" fill="#FF6904"/>
</g>
<defs>
<clipPath id="clip0_14_523">
<rect width="32" height="32" fill="white" transform="translate(-3.05176e-05 0.5)"/>
</clipPath>
</defs>
</svg>
