<svg width="32" height="32" viewBox="0 0 32 32" fill="none" xmlns="http://www.w3.org/2000/svg">
<path d="M27.316 22.8533L21.896 17.9253C21.6398 17.6925 21.3031 17.5683 20.9571 17.579C20.611 17.5897 20.2827 17.7344 20.0413 17.9827L16.8507 21.264C16.0827 21.1173 14.5387 20.636 12.9493 19.0507C11.36 17.46 10.8787 15.912 10.736 15.1493L14.0147 11.9573C14.2632 11.7162 14.4082 11.3878 14.4189 11.0416C14.4296 10.6954 14.3052 10.3587 14.072 10.1027L9.14534 4.68399C8.91207 4.42714 8.58785 4.27133 8.24155 4.24967C7.89525 4.22801 7.55414 4.3422 7.29068 4.56799L4.39734 7.04933C4.16682 7.28068 4.02924 7.58859 4.01068 7.91466C3.99068 8.24799 3.60934 16.144 9.73201 22.2693C15.0733 27.6093 21.764 28 23.6067 28C23.876 28 24.0413 27.992 24.0853 27.9893C24.4114 27.9711 24.7191 27.8329 24.9493 27.6013L27.4293 24.7067C27.656 24.444 27.7711 24.1032 27.7499 23.7569C27.7287 23.4107 27.573 23.0864 27.316 22.8533Z" fill="#FF6904"/>
</svg>
